Coordinates
version=1
nRows=15
nColumns=38
inDegrees=yes

Units are S.I. units (second, meters, Newtons, ...)
Angles are in degrees.

endheader
time	pelvis_tilt	pelvis_list	pelvis_rotation	pelvis_tx	pelvis_ty	pelvis_tz	hip_flexion_r	hip_adduction_r	hip_rotation_r	knee_angle_r	ankle_angle_r	subtalar_angle_r	mtp_angle_r	hip_flexion_l	hip_adduction_l	hip_rotation_l	knee_angle_l	ankle_angle_l	subtalar_angle_l	mtp_angle_l	lumbar_extension	lumbar_bending	lumbar_rotation	arm_flex_r	arm_add_r	arm_rot_r	elbow_flex_r	pro_sup_r	wrist_flex_r	wrist_dev_r	arm_flex_l	arm_add_l	arm_rot_l	elbow_flex_l	pro_sup_l	wrist_flex_l	wrist_dev_l
      1.88000000	     -4.03530031	      0.04215349	     -5.32149839	      0.76462731	      0.86323895	     -0.17372137	     -5.23856143	      7.79405427	     12.14240544	    -26.43380882	     15.96562891	     -5.34828796	      0.00000000	     31.69839379	      0.75773593	     -7.03600545	    -15.72605905	      0.96438979	      4.21910061	      0.00000000	     -5.98050479	     -0.76693700	     10.91734651	     10.82057012	     -7.67813500	     40.99517838	     39.86197009	     43.76963579	      0.00000000	      0.00000000	     -9.53818253	     -5.28178345	     26.72401263	     29.80915828	     43.76963579	      0.00000000	      0.00000000
      1.89000000	     -4.02325307	      0.59268323	     -5.04704136	      0.77869631	      0.86310080	     -0.17375720	     -5.40640256	      7.12898283	     11.23492259	    -27.60507271	     14.45461863	     -4.54004504	      0.00000000	     32.01436071	      1.45153876	     -6.90568141	    -17.28919070	      0.41615461	      4.02605517	      0.00000000	     -5.82679184	     -1.69435435	     10.51345615	     10.54683760	     -7.36466762	     41.02807061	     39.77982073	     43.78069727	      0.00000000	      0.00000000	     -9.93046971	     -5.52251354	     26.71000407	     29.51127662	     43.78069727	      0.00000000	      0.00000000
      1.90000000	     -3.97783893	      1.27138651	     -4.72080784	      0.79277238	      0.86355868	     -0.17396281	     -5.25762047	      6.09256165	      9.56433878	    -29.26067138	     13.02235007	     -2.04711281	      0.00000000	     31.95385530	      2.64065471	     -4.69297934	    -18.44920371	      0.30483248	      3.01832452	      0.00000000	     -5.72121521	     -2.75999284	     10.01812120	     10.35201579	     -6.96188195	     40.89462672	     39.20659362	     43.82064913	      0.00000000	      0.00000000	    -10.07777787	     -5.60485672	     26.69694402	     28.80988699	     43.82064913	      0.00000000	      0.00000000
      1.91000000	     -3.73494313	      1.77200873	     -4.26243974	      0.80704839	      0.86471113	     -0.17391262	     -5.44937021	      5.49712406	      8.59559908	    -30.65583258	     10.37730672	     -1.59048603	      0.00000000	     31.73663583	      3.38116851	     -3.94297407	    -19.99994505	     -0.57050754	      3.21820668	      0.00000000	     -5.86233194	     -3.67176827	      9.46632241	     10.00493155	     -6.64027733	     40.94290940	     39.09149690	     43.82915953	      0.00000000	      0.00000000	    -10.26305626	     -5.85659579	     26.67076102	     28.55597316	     43.82915953	      0.00000000	      0.00000000
      1.92000000	     -3.38527940	      2.18401699	     -3.71953880	      0.82159676	      0.86637438	     -0.17385575	     -5.48541190	      4.90675689	      7.24021042	    -32.37329110	      7.35523782	     -0.64399013	      0.00000000	     31.29180453	      4.02553609	     -3.52495392	    -21.46100386	     -1.49475111	      3.17203569	      0.00000000	     -6.09840577	     -4.47297779	      8.85557023	      9.59052833	     -6.26912323	     40.94917657	     38.87872225	     43.83981695	      0.00000000	      0.00000000	    -10.36726105	     -6.09910515	     26.62830437	     28.24567690	     43.83981695	      0.00000000	      0.00000000
      1.93000000	     -2.95749569	      2.58712067	     -3.22441296	      0.83630010	      0.86819133	     -0.17384006	     -5.26965825	      4.10641797	      5.44855252	    -34.52593599	      4.50159856	      1.35980941	      0.00000000	     30.57624928	      4.79238131	     -2.60012567	    -22.55229528	     -2.15986485	      2.14794310	      0.00000000	     -6.40572416	     -5.24637052	      8.35487299	      9.12227067	     -5.82223262	     40.73759464	     38.31167644	     43.87043104	      0.00000000	      0.00000000	    -10.36499994	     -6.21685200	     26.58413709	     27.61391173	     43.87043104	      0.00000000	      0.00000000
      1.94000000	     -2.60262515	      2.86629306	     -2.79458133	      0.85091330	      0.86999491	     -0.17397591	     -4.86074098	      3.45743983	      4.01050793	    -36.64605361	      1.22144007	      2.56596575	      0.00000000	     29.75679081	      5.55071514	     -1.29333625	    -23.46895885	     -1.82899330	      1.16719984	      0.00000000	     -6.61346904	     -5.81386010	      7.89894271	      8.58784956	     -5.54119836	     40.63173288	     38.03355847	     43.89273817	      0.00000000	      0.00000000	    -10.37756170	     -6.32289352	     26.57161749	     27.22666882	     43.89273817	      0.00000000	      0.00000000
      1.95000000	     -2.35184591	      3.19372227	     -2.51035411	      0.86507971	      0.87164309	     -0.17436534	     -4.08118058	      2.61880344	      2.72110838	    -38.96603128	     -1.44488318	      4.29772280	      0.00000000	     28.84144719	      6.42071081	      0.08160845	    -24.09494654	     -1.03490726	      0.06616466	      0.00000000	     -6.73242213	     -6.35350269	      7.55432646	      8.08247935	     -5.35054742	     40.48631927	     37.84014377	     43.91851841	      0.00000000	      0.00000000	    -10.32646916	     -6.34151567	     26.57030241	     26.84353611	     43.91851841	      0.00000000	      0.00000000
      1.96000000	     -2.14843578	      3.47014114	     -2.31329888	      0.87876155	      0.87309558	     -0.17480873	     -3.15190732	      1.89860255	      1.90280438	    -41.31435768	     -2.57723987	      5.90122740	      0.00000000	     27.92129852	      7.07995828	      0.91063533	    -24.59662336	     -0.30235044	     -0.72025081	      0.00000000	     -6.83344449	     -6.77785210	      7.23067914	      7.64558068	     -5.25180403	     40.35748424	     37.74471887	     43.94123314	      0.00000000	      0.00000000	    -10.22032922	     -6.32266996	     26.57467628	     26.54618451	     43.94123314	      0.00000000	      0.00000000
      1.97000000	     -2.01373072	      3.65481901	     -2.22524228	      0.89178509	      0.87449572	     -0.17513368	     -2.11467427	      1.54136405	      1.92962602	    -43.66754628	     -1.86351505	      7.21969356	      0.00000000	     27.07748662	      7.50374257	      1.55343433	    -25.03960244	      0.49361864	     -1.23610348	      0.00000000	     -6.92843937	     -7.05633878	      6.96431581	      7.31982232	     -5.21436791	     40.22366467	     37.70000564	     43.96273875	      0.00000000	      0.00000000	    -10.01727193	     -6.26175417	     26.58571439	     26.30084427	     43.96273875	      0.00000000	      0.00000000
      1.98000000	     -1.85143270	      3.71002320	     -2.20567184	      0.90456867	      0.87591083	     -0.17532810	     -0.89877995	      1.42256001	      2.16873606	    -46.14979446	     -0.11116136	      7.47132813	      0.00000000	     26.16542398	      7.78438823	      2.08946924	    -25.43822074	      1.43764923	     -1.53748907	      0.00000000	     -7.07090964	     -7.15298993	      6.75178861	      7.04365033	     -5.23369686	     40.18104774	     37.64523589	     43.97194988	      0.00000000	      0.00000000	     -9.78818986	     -6.21305411	     26.59173955	     26.22691472	     43.97194988	      0.00000000	      0.00000000
      1.99000000	     -1.69835557	      3.84363386	     -2.24186831	      0.91715657	      0.87726106	     -0.17560341	      0.56105759	      0.98193793	      1.87797429	    -48.66122995	      1.14198578	      7.98291209	      0.00000000	     25.17279125	      8.17587685	      2.68474921	    -25.63880610	      2.26570339	     -2.14048548	      0.00000000	     -7.20994834	     -7.29332130	      6.57699366	      6.80073047	     -5.28621718	     40.07938400	     37.62053518	     43.98956394	      0.00000000	      0.00000000	     -9.47492070	     -6.09000221	     26.62280362	     26.05700270	     43.98956394	      0.00000000	      0.00000000
      2.00000000	     -1.46485959	      3.75622282	     -2.35234282	      0.92965403	      0.87887550	     -0.17572827	      1.97345271	      0.81341411	      1.65522563	    -50.92072817	      1.95644536	      7.64996322	      0.00000000	     24.07211174	      8.23642164	      2.98949415	    -25.82905523	      3.33953779	     -2.31756182	      0.00000000	     -7.45765141	     -7.15238118	      6.43733424	      6.66223328	     -5.37859494	     40.05572945	     37.56662837	     43.99408667	      0.00000000	      0.00000000	     -9.17107148	     -5.94065493	     26.64390855	     26.09305604	     43.99408667	      0.00000000	      0.00000000
      2.01000000	     -1.32754877	      3.64233467	     -2.51721524	      0.94195929	      0.88054816	     -0.17573620	      3.60485154	      0.72969232	      1.56955948	    -53.07463555	      3.01549976	      7.44440536	      0.00000000	     22.99931047	      8.25013530	      3.49018473	    -25.90329180	      4.29233992	     -2.39822854	      0.00000000	     -7.58888930	     -6.99047585	      6.37262618	      6.47238070	     -5.49952370	     40.04008696	     37.49093709	     43.99897208	      0.00000000	      0.00000000	     -8.80810649	     -5.79032237	     26.66606329	     26.13217766	     43.99897208	      0.00000000	      0.00000000
      2.02000000	     -1.34226561	      3.42460825	     -2.73540359	      0.95410716	      0.88210426	     -0.17558437	      5.45651537	      0.80550718	      1.56050475	    -55.01726316	      4.34389733	      7.16190750	      0.00000000	     22.04918398	      8.12862729	      3.56206649	    -25.79050933	      5.06444667	     -2.95173500	      0.00000000	     -7.53280567	     -6.68533953	      6.42033888	      6.17690682	     -5.64801017	     40.02451999	     37.38041461	     44.01119852	      0.00000000	      0.00000000	     -8.36666764	     -5.62954527	     26.72333522	     26.07719478	     44.01119852	      0.00000000	      0.00000000
